<?xml version="1.0" standalone="no"?>
<!DOCTYPE svg PUBLIC "-//W3C//DTD SVG 20010904//EN"
 "http://www.w3.org/TR/2001/REC-SVG-20010904/DTD/svg10.dtd">
<svg version="1.0" xmlns="http://www.w3.org/2000/svg"
 width="1000.000000pt" height="1000.000000pt" viewBox="0 0 1000.000000 1000.000000"
 preserveAspectRatio="xMidYMid meet">
<metadata>
Created by potrace 1.11, written by Peter Selinger 2001-2013
</metadata>
<g transform="translate(0.000000,1000.000000) scale(0.100000,-0.100000)"
fill="#000000" stroke="none">
<path d="M5520 5145 l0 -2535 310 0 310 0 0 1040 0 1040 854 0 c837 0 855 0
921 -21 86 -26 151 -88 186 -175 l24 -59 3 -912 3 -913 310 0 310 0 -4 978
c-3 901 -4 982 -21 1036 -58 196 -185 311 -403 366 -42 11 -43 12 -43 53 0 40
2 43 47 67 270 142 439 344 538 643 50 151 58 230 52 514 -5 269 -20 366 -81
528 -190 502 -648 818 -1266 874 -71 7 -485 11 -1082 11 l-968 0 0 -2535z
m2028 1949 c396 -58 649 -269 734 -609 19 -78 22 -117 22 -290 0 -117 -5 -227
-13 -265 -69 -366 -282 -565 -691 -646 -73 -15 -178 -18 -772 -21 l-688 -4 0
925 0 926 651 0 c539 0 670 -3 757 -16z"/>
<path d="M1053 7651 c-130 -45 -216 -146 -243 -286 -8 -44 -10 -648 -8 -2275
l3 -2215 31 -66 c43 -89 93 -142 172 -181 l67 -33 302 -3 303 -3 0 181 0 180
-195 0 c-216 0 -242 6 -270 60 -13 26 -15 271 -15 2120 0 1849 2 2094 15 2120
28 54 54 60 270 60 l195 0 0 180 0 180 -287 0 c-251 -1 -295 -3 -340 -19z"/>
<path d="M2900 7488 l0 -185 188 -6 c195 -6 264 -17 407 -63 511 -167 876
-630 960 -1219 21 -147 21 -1623 0 -1772 -89 -626 -498 -1106 -1066 -1249 -88
-22 -134 -27 -296 -31 l-193 -6 0 -185 0 -184 218 5 c245 6 333 20 536 88 598
199 1040 712 1171 1361 42 212 47 335 42 1173 -4 843 -5 857 -62 1085 -173
692 -683 1192 -1359 1336 -100 22 -157 27 -333 31 l-213 5 0 -184z"/>
</g>
</svg>
